<?xml version="1.0" encoding="UTF-8" standalone="no"?>
<!-- Created with Inkscape (http://www.inkscape.org/) -->

<svg
   version="1.1"
   id="svg860"
   width="5620.4492"
   height="1537.8398"
   viewBox="0 0 5620.4492 1537.8398"
   sodipodi:docname="logo.eps"
   xmlns:inkscape="http://www.inkscape.org/namespaces/inkscape"
   xmlns:sodipodi="http://sodipodi.sourceforge.net/DTD/sodipodi-0.dtd"
   xmlns="http://www.w3.org/2000/svg"
   xmlns:svg="http://www.w3.org/2000/svg">
  <defs
     id="defs864">
    <linearGradient
       x1="0"
       y1="0"
       x2="1"
       y2="0"
       gradientUnits="userSpaceOnUse"
       gradientTransform="matrix(50107,-29820.2,-29820.2,-50107,126.361,29803)"
       spreadMethod="pad"
       id="linearGradient876">
      <stop
         style="stop-opacity:1;stop-color:#fbc907"
         offset="0"
         id="stop872" />
      <stop
         style="stop-opacity:1;stop-color:#f36418"
         offset="1"
         id="stop874" />
    </linearGradient>
    <clipPath
       clipPathUnits="userSpaceOnUse"
       id="clipPath888">
      <path
         d="m 13704.6,16124.5 -566.5,-860.4 -1080.5,-1641.5 -1747.7,-2655.7 -136.6,-207.5 -40.5,-61.3 -51.3,34 -381.25,251 -2687.01,1768.5 -711.2,468 -831.12,547.4 -538.06,354.1 -302.98,199.2 320.46,487.1 569.79,865.7 32.06,48.3 745,1131.5 463.59,704.5 293.34,446.2 1147.58,1743.1 2424.3,-1595.9 379.9,-249.8 114.2,-75.3 602.7,-396.9 426.2,-280.2 528.7,-348.1 z"
         id="path886" />
    </clipPath>
    <linearGradient
       x1="0"
       y1="0"
       x2="1"
       y2="0"
       gradientUnits="userSpaceOnUse"
       gradientTransform="matrix(21979.8,2681.02,2681.02,-21979.8,-1079.89,13972.5)"
       spreadMethod="pad"
       id="linearGradient894">
      <stop
         style="stop-opacity:1;stop-color:#fbc907"
         offset="0"
         id="stop890" />
      <stop
         style="stop-opacity:1;stop-color:#f36418"
         offset="1"
         id="stop892" />
    </linearGradient>
    <clipPath
       clipPathUnits="userSpaceOnUse"
       id="clipPath906">
      <path
         d="m 10636.2,19598.3 -1035.52,1.6 747.42,463.2 z"
         id="path904" />
    </clipPath>
    <linearGradient
       x1="0"
       y1="0"
       x2="1"
       y2="0"
       gradientUnits="userSpaceOnUse"
       gradientTransform="matrix(14302.9,-16903.5,-16903.5,-14302.9,5469.5,25155.5)"
       spreadMethod="pad"
       id="linearGradient912">
      <stop
         style="stop-opacity:1;stop-color:#fbc907"
         offset="0"
         id="stop908" />
      <stop
         style="stop-opacity:1;stop-color:#f36418"
         offset="1"
         id="stop910" />
    </linearGradient>
    <clipPath
       clipPathUnits="userSpaceOnUse"
       id="clipPath928">
      <path
         d="m 6639.85,13715.5 -693.15,1118.1 -303.05,489.1 -816.91,1317.9 1818.4,1127 -1.78,-1254.6 -0.95,-851.3 z"
         id="path926" />
    </clipPath>
    <linearGradient
       x1="0"
       y1="0"
       x2="1"
       y2="0"
       gradientUnits="userSpaceOnUse"
       gradientTransform="matrix(14302.9,-16903.5,-16903.5,-14302.9,1511.02,21806.1)"
       spreadMethod="pad"
       id="linearGradient934">
      <stop
         style="stop-opacity:1;stop-color:#fbc907"
         offset="0"
         id="stop930" />
      <stop
         style="stop-opacity:1;stop-color:#f36418"
         offset="1"
         id="stop932" />
    </linearGradient>
    <clipPath
       clipPathUnits="userSpaceOnUse"
       id="clipPath946">
      <path
         d="m 13588.2,12459.3 -1030.2,1.5 -1965.2,2.5 -3179.19,3.7 -248.37,0.3 -73.47,0.3 0.24,61.5 0.6,456.4 3.92,3216.8 0.95,851.4 1.54,995.2 0.78,644.1 0.28,362.6 583.07,-0.6 1036.4,-1.3 57.97,-0.2 1354.68,-2 843.4,-0.9 533.9,-0.4 2087,-2.8 -3.8,-2902.4 -0.4,-454.7 -0.2,-136.8 -1.1,-721.6 -0.3,-510.1 -0.9,-633 z"
         id="path944" />
    </clipPath>
    <linearGradient
       x1="0"
       y1="0"
       x2="1"
       y2="0"
       gradientUnits="userSpaceOnUse"
       gradientTransform="matrix(14302.9,-16903.5,-16903.5,-14302.9,3676.04,23638)"
       spreadMethod="pad"
       id="linearGradient952">
      <stop
         style="stop-opacity:1;stop-color:#fbc907"
         offset="0"
         id="stop948" />
      <stop
         style="stop-opacity:1;stop-color:#f36418"
         offset="1"
         id="stop950" />
    </linearGradient>
  </defs>
  <sodipodi:namedview
     id="namedview862"
     pagecolor="#ffffff"
     bordercolor="#000000"
     borderopacity="0.25"
     inkscape:showpageshadow="2"
     inkscape:pageopacity="0.0"
     inkscape:pagecheckerboard="0"
     inkscape:deskcolor="#d1d1d1"
     showgrid="false" />
  <g
     id="g868"
     inkscape:groupmode="layer"
     inkscape:label="Page 1"
     transform="matrix(1.3333333,0,0,-1.3333333,-523.11066,2768.9199)">
    <g
       id="g870"
       transform="scale(0.1)"
       style="display:inline">
      <path
         d="M 50000,0 H 0 V 30000 H 50000 V 0"
         style="display:none;fill:url(#linearGradient876);fill-opacity:1;fill-rule:nonzero;stroke:none"
         id="path878" />
      <path
         d="m 14875.5,15896.7 -896.9,590 -1504,989.9 -610.7,402.3 -177.2,116.6 -494.1,325.1 -3198.77,2105.5 -1583.83,-2405.8 -293.35,-446.1 -569.58,-864.7 -66.17,-101.2 -134.16,-203.2 -369.47,-561.3 -1053.94,-1601.3 995.56,-655.2 538.06,-354.1 1047.87,-690 711.2,-467.9 1625.55,-1070.2 672.94,-443.1 44.58,-28.9 449.51,-296.2 1416.8,-932.4 763.8,1160.4 349.2,530.7 388.4,589.7 902.8,1372.1 59.4,90.3 1264.4,1921.2 342.1,519.4 -620,408.4"
         style="fill:#d8d7d5;fill-opacity:1;fill-rule:nonzero;stroke:none"
         id="path880" />
      <g
         id="g882"
         style="display:inline">
        <g
           id="g884"
           clip-path="url(#clipPath888)"
           style="display:inline">
          <path
             d="m 13704.6,16124.5 -566.5,-860.4 -1080.5,-1641.5 -1747.7,-2655.7 -136.6,-207.5 -40.5,-61.3 -51.3,34 -381.25,251 -2687.01,1768.5 -711.2,468 -831.12,547.4 -538.06,354.1 -302.98,199.2 320.46,487.1 569.79,865.7 32.06,48.3 745,1131.5 463.59,704.5 293.34,446.2 1147.58,1743.1 2424.3,-1595.9 379.9,-249.8 114.2,-75.3 602.7,-396.9 426.2,-280.2 528.7,-348.1 1026.9,-676"
             style="fill:url(#linearGradient894);fill-opacity:1;fill-rule:nonzero;stroke:none"
             id="path896" />
        </g>
      </g>
      <path
         d="m 11170.1,19597.9 -533.9,0.4 -424.2,-43.6 -611.32,45.2 -120.89,-0.2 -243.46,0.7 -672.04,0.8 1880.71,1165.7 725.1,-1169"
         style="fill:#eceaeb;fill-opacity:1;fill-rule:nonzero;stroke:none"
         id="path898" />
      <g
         id="g900">
        <g
           id="g902"
           clip-path="url(#clipPath906)">
          <path
             d="m 10636.2,19598.3 -1035.52,1.6 747.42,463.2 z"
             style="fill:url(#linearGradient912);fill-opacity:1;fill-rule:nonzero;stroke:none"
             id="path914" />
        </g>
      </g>
      <path
         d="m 6638.94,12856.6 -69.05,110.9 -930.19,1500.6 -303.05,489.1 -1183.77,1909.3 2493.05,1545.3 -1.23,-1001.3 -510.23,-1120.6 196.15,-901.2 311.07,-268.7 -1.84,-1404.5 -0.91,-858.9"
         style="fill:#eceaeb;fill-opacity:1;fill-rule:nonzero;stroke:none"
         id="path916" />
      <path
         d="m 11117.2,10616.8 -225.5,-140 -780.3,-483.4 -405.4,-251.7 -820.69,-508.6 -860.06,1387.3 635.31,-0.6 706.1,-1.1 1642.54,-1.8 108,-0.1"
         style="fill:#eceaeb;fill-opacity:1;fill-rule:nonzero;stroke:none"
         id="path918" />
      <path
         d="m 14041.3,12429.1 1136.1,704.4 -1132.7,1827.4 z"
         style="fill:#eceaeb;fill-opacity:1;fill-rule:nonzero;stroke:none"
         id="path920" />
      <g
         id="g922">
        <g
           id="g924"
           clip-path="url(#clipPath928)">
          <path
             d="m 6639.85,13715.5 -693.15,1118.1 -303.05,489.1 -816.91,1317.9 1818.4,1127 -1.78,-1254.6 -0.95,-851.3 -2.56,-1946.2"
             style="fill:url(#linearGradient934);fill-opacity:1;fill-rule:nonzero;stroke:none"
             id="path936" />
        </g>
      </g>
      <path
         d="m 14040.3,11355.5 1,1073.6 2.2,1800.5 1.2,731.3 0.3,212.1 0.6,591.5 4.8,3829.5 -2880.3,3.9 -533.9,0.4 -1035.52,1.6 -120.89,-0.2 -243.46,0.7 -672.04,0.8 -1916.96,2.4 -1.4,-1191.8 -0.79,-644.2 -1.78,-1254.6 -0.95,-851.3 -2.56,-1946.2 -1.15,-805.7 0.24,-53.2 -0.89,-538.3 -2.03,-1696.1 1389.23,-1.8 635.31,-0.6 706.1,-1.1 1642.54,-1.8 108,-0.1 2299.9,-2.8 622,-0.9 1.2,742.4"
         style="fill:#ffffff;fill-opacity:1;fill-rule:nonzero;stroke:none"
         id="path938" />
      <g
         id="g940">
        <g
           id="g942"
           clip-path="url(#clipPath946)">
          <path
             d="m 13588.2,12459.3 -1030.2,1.5 -1965.2,2.5 -3179.19,3.7 -248.37,0.3 -73.47,0.3 0.24,61.5 0.6,456.4 3.92,3216.8 0.95,851.4 1.54,995.2 0.78,644.1 0.28,362.6 583.07,-0.6 1036.4,-1.3 57.97,-0.2 1354.68,-2 843.4,-0.9 533.9,-0.4 2087,-2.8 -3.8,-2902.4 -0.4,-454.7 -0.2,-136.8 -1.1,-721.6 -0.3,-510.1 -0.9,-633 -1.6,-1229.5"
             style="fill:url(#linearGradient952);fill-opacity:1;fill-rule:nonzero;stroke:none"
             id="path954" />
        </g>
      </g>
      <path
         d="m 10340.1,16516.8 c 598,0 1083.4,-484.9 1083.4,-1083.5 0,-598.6 -485.4,-1083.5 -1083.4,-1083.5 -598.65,0 -1084.1,484.9 -1084.1,1083.5 0,598.6 485.45,1083.5 1084.1,1083.5 z m 0,565.8 c -910.97,0 -1649.33,-738.4 -1649.33,-1649.3 0,-910.9 738.36,-1649.3 1649.33,-1649.3 910.3,0 1648.7,738.4 1648.7,1649.3 0,910.9 -738.4,1649.3 -1648.7,1649.3"
         style="fill:#ffffff;fill-opacity:1;fill-rule:nonzero;stroke:none"
         id="path956" />
      <path
         d="m 11597.2,17731 c -165.7,0 -299.8,-134.1 -299.8,-299.9 0,-165.8 134.1,-299.9 299.8,-299.9 165.8,0 299.9,134.1 299.9,299.9 0,165.8 -134.1,299.9 -299.9,299.9"
         style="fill:#ffffff;fill-opacity:1;fill-rule:nonzero;stroke:none"
         id="path958" />
      <path
         d="m 10339.5,16345.3 c -291.4,0 -551.08,-136.9 -717.42,-349.6 155.59,105.2 343.42,166.9 546.02,166.9 539.7,0 976.5,-437.4 976.5,-976.6 0,-78.6 -9.6,-155.6 -27.1,-229.1 85.4,138.6 134.6,301.5 134.6,476.4 0,503.5 -408.5,912 -912.6,912"
         style="fill:#ffffff;fill-opacity:1;fill-rule:nonzero;stroke:none"
         id="path960" />
      <path
         d="m 18019,14746.8 h 1036.5 c 884.6,0 879.4,1298.2 0,1298.2 H 18019 Z m 1036.5,-633.4 H 18019 v -1078.3 h -691 v 3664.3 c 575.8,0 1151.6,5.2 1727.5,5.2 1790.2,0 1795.4,-2591.2 0,-2591.2"
         style="fill:#ffffff;fill-opacity:1;fill-rule:nonzero;stroke:none"
         id="path962" />
      <path
         d="M 21458.2,16699.4 V 15265 c 230.3,298.4 512.9,387.4 806.1,387.4 732.8,0 1057.4,-497.3 1057.4,-1256.3 v -1361 h -638.6 v 1355.8 c 0,471.1 -246.1,670 -586.3,670 -376.9,0 -638.6,-319.3 -638.6,-706.7 v -1319.1 h -638.7 v 3664.3 h 638.7"
         style="fill:#ffffff;fill-opacity:1;fill-rule:nonzero;stroke:none"
         id="path964" />
      <path
         d="m 24379.1,14322.8 c 0,-392.6 235.5,-759 701.4,-759 465.9,0 701.5,366.4 701.5,759 0,387.4 -272.2,764.3 -701.5,764.3 -460.6,0 -701.4,-376.9 -701.4,-764.3 z m 2046.7,0 c 0,-743.3 -507.7,-1345.3 -1345.3,-1345.3 -837.5,0 -1340,602 -1340,1345.3 0,738.1 513,1345.3 1334.8,1345.3 821.8,0 1350.5,-607.2 1350.5,-1345.3"
         style="fill:#ffffff;fill-opacity:1;fill-rule:nonzero;stroke:none"
         id="path966" />
      <path
         d="m 27713.6,16343.4 v -732.9 h 711.9 v -549.6 h -717.2 v -1115 c 0,-246 136.1,-366.4 335,-366.4 99.5,0 214.7,31.4 308.9,78.5 l 178,-544.4 c -183.2,-73.3 -335,-104.7 -528.7,-109.9 -560.1,-21 -926.6,298.4 -926.6,942.2 v 1115 h -481.6 v 549.6 h 481.6 v 664.8 l 638.7,68.1"
         style="fill:#ffffff;fill-opacity:1;fill-rule:nonzero;stroke:none"
         id="path968" />
      <path
         d="m 29420,14322.8 c 0,-392.6 235.6,-759 701.4,-759 465.9,0 701.5,366.4 701.5,759 0,387.4 -272.2,764.3 -701.5,764.3 -460.6,0 -701.4,-376.9 -701.4,-764.3 z m 2046.8,0 c 0,-743.3 -507.8,-1345.3 -1345.4,-1345.3 -837.5,0 -1340,602 -1340,1345.3 0,738.1 513,1345.3 1334.8,1345.3 821.9,0 1350.6,-607.2 1350.6,-1345.3"
         style="fill:#ffffff;fill-opacity:1;fill-rule:nonzero;stroke:none"
         id="path970" />
      <path
         d="m 33016.2,13035.1 v 3664.3 h 685.7 v -3664.3 h -685.7"
         style="fill:#ffffff;fill-opacity:1;fill-rule:nonzero;stroke:none"
         id="path972" />
      <path
         d="m 36204.1,13035.1 v 1350.5 c 0,392.6 -214.6,691 -622.9,691 -392.7,0 -659.6,-329.8 -659.6,-722.4 v -1319.1 h -633.4 V 15621 h 570.6 l 41.8,-350.7 c 261.8,256.5 523.5,387.3 848.1,387.3 607.2,0 1094,-455.4 1094,-1266.7 v -1355.8 h -638.6"
         style="fill:#ffffff;fill-opacity:1;fill-rule:nonzero;stroke:none"
         id="path974" />
      <path
         d="m 38072.8,14328 c 0,-465.8 345.5,-759 748.6,-759 408.3,0 732.9,308.9 732.9,759 0,465.9 -324.6,753.8 -732.9,753.8 -403.1,0 -748.6,-303.6 -748.6,-753.8 z m -41.8,2366.1 V 15265 c 151.8,267 575.8,413.6 848,413.6 753.8,0 1313.9,-460.7 1313.9,-1350.6 0,-848 -570.6,-1350.5 -1329.6,-1350.5 -314.1,0 -633.4,104.7 -832.3,413.5 l -41.9,-355.9 h -596.8 v 3659 h 638.7"
         style="fill:#ffffff;fill-opacity:1;fill-rule:nonzero;stroke:none"
         id="path976" />
      <path
         d="m 41182.3,14322.8 c 0,-392.6 235.5,-759 701.4,-759 465.9,0 701.5,366.4 701.5,759 0,387.4 -272.2,764.3 -701.5,764.3 -460.6,0 -701.4,-376.9 -701.4,-764.3 z m 2046.7,0 c 0,-743.3 -507.7,-1345.3 -1345.3,-1345.3 -837.5,0 -1340.1,602 -1340.1,1345.3 0,738.1 513,1345.3 1334.9,1345.3 821.8,0 1350.5,-607.2 1350.5,-1345.3"
         style="fill:#ffffff;fill-opacity:1;fill-rule:nonzero;stroke:none"
         id="path978" />
      <path
         d="m 45260.1,15615.8 h 764.2 v -21 l -848,-1251 900.4,-1293 v -15.7 h -764.3 l -560.1,863.7 -560.1,-863.7 h -764.3 v 15.7 l 900.4,1293 -848,1251 v 21 h 764.2 l 507.8,-874.2 507.8,874.2"
         style="fill:#ffffff;fill-opacity:1;fill-rule:nonzero;stroke:none"
         id="path980" />
    </g>
  </g>
</svg>
